<mxfile host="app.diagrams.net" modified="2024-01-21T12:06:38.699Z" agent="Mozilla/5.0 (Windows NT 10.0; Win64; x64) AppleWebKit/537.36 (KHTML, like Gecko) Chrome/120.0.0.0 Safari/537.36" version="22.1.21" etag="0g0_qDBoTqJW_UIjonDm" type="github">
  <diagram name="Trang-1" id="9WkAJR2E6LkmlIY9tETS">
    <mxGraphModel>
      <root>
        <mxCell id="0" />
        <mxCell id="1" parent="0" />
      </root>
    </mxGraphModel>
  </diagram>
</mxfile>
